<svg width="37" height="37" viewBox="0 0 37 37" fill="none" xmlns="http://www.w3.org/2000/svg">
<g clip-path="url(#clip0_219_38)">
<path fill-rule="evenodd" clip-rule="evenodd" d="M24.9308 25.4483H22.3126V20.8672C22.3126 19.6104 21.7582 18.9093 20.7639 18.9093C19.682 18.9093 19.0398 19.6399 19.0398 20.8672V25.4483H16.4217V16.9392H19.0398V17.8961C19.0398 17.8961 19.8613 16.4547 21.7123 16.4547C23.5641 16.4547 24.9308 17.5847 24.9308 19.9227V25.4483ZM13.4382 15.5784C12.5553 15.5784 11.8398 14.8571 11.8398 13.9676C11.8398 13.0787 12.5553 12.3574 13.4382 12.3574C14.3206 12.3574 15.036 13.0787 15.036 13.9676C15.0366 14.8571 14.3206 15.5784 13.4382 15.5784ZM11.8398 25.4483H15.1126V16.9392H11.8398V25.4483Z" fill="white"/>
</g>
<path opacity="0.2" d="M35.6484 18.9004C35.6484 28.4273 27.9254 36.1504 18.3984 36.1504C8.87153 36.1504 1.14844 28.4273 1.14844 18.9004C1.14844 9.37348 8.87153 1.65039 18.3984 1.65039C27.9254 1.65039 35.6484 9.37348 35.6484 18.9004Z" stroke="white" stroke-width="1.5"/>
<defs>
<clipPath id="clip0_219_38">
<rect width="13.0909" height="13.0909" fill="white" transform="translate(11.8438 12.3555)"/>
</clipPath>
</defs>
</svg>
