<svg width="104" height="104" viewBox="0 0 104 104" fill="none" xmlns="http://www.w3.org/2000/svg">
<path d="M12.764 79.5H7.508L26.444 27.948H32.852L52.004 79.5H46.604L41.564 65.82H17.804L12.764 79.5ZM28.964 35.22L19.388 61.284H39.908L30.26 35.22C30.044 34.5 29.684 33.636 29.612 33.132C29.54 33.564 29.252 34.5 28.964 35.22Z" fill="white"/>
<path fill-rule="evenodd" clip-rule="evenodd" d="M80.0562 78.25C70.7881 77.5769 57.2131 66.4975 57.2131 52C57.2131 37.5044 70.4975 26.5637 80.0562 25.75C82.9325 25.5063 81.4119 25.5156 84.0725 25.75C77.8156 29.695 70.655 40.6787 70.655 52C70.655 63.3213 75.8638 73.7856 84.0725 78.25C81.545 78.4844 82.8087 78.4487 80.0562 78.25ZM74.48 52C74.48 39.0625 82.8781 28.0676 94.625 23.8582C91.3306 22.6769 87.7869 22 84.0725 22C67.1188 22 53.375 35.4325 53.375 52C53.375 68.5694 67.1188 82 84.0725 82C87.7869 82 91.3306 81.3231 94.625 80.1418C82.8781 75.9324 74.48 64.9394 74.48 52Z" fill="white"/>
</svg>
